<svg width="128" height="94" viewBox="0 0 128 94" fill="none" xmlns="http://www.w3.org/2000/svg">
<path opacity="0.75" d="M127.166 93.9002C99.1795 93.9002 76.4602 72.8637 76.4602 46.9501C76.4602 21.0366 99.1795 0 127.166 0V22.638L127.166 93.9002Z" fill="#536DFE"/>
<path opacity="0.75" d="M102.245 93.9002C74.2589 93.9002 51.5395 72.8637 51.5395 46.9501C51.5395 21.0366 74.2589 0 102.245 0V22.638L102.245 93.9002Z" fill="#3F51B5"/>
<path opacity="0.75" d="M76.8533 93.9002C48.8668 93.9002 26.1474 72.8637 26.1474 46.9501C26.1474 21.0366 48.8668 0 76.8533 0V22.638L76.8533 93.9002Z" fill="#F44336"/>
<path opacity="0.75" d="M51.5396 93.9002C23.5531 93.9002 0.833706 72.8637 0.833706 46.9501C0.833706 21.0366 23.5531 0 51.5396 0V22.638L51.5396 93.9002Z" fill="#FFA000"/>
</svg>
